<svg width="24" height="24" xmlns="http://www.w3.org/2000/svg">

 <g>
  <title>background</title>
  <rect fill="none" id="canvas_background" height="402" width="582" y="-1" x="-1"/>
 </g>
 <g>
  <title>Layer 1</title>
  <path id="svg_1" fill="#f38281" d="m10.67,15.0969c-0.506,2.726 -1.12198,5.34 -2.94998,6.705c-0.563,-4.12 0.829,-7.215 1.475,-10.5c-1.102,-1.90996 0.133,-5.75496 2.45698,-4.80796c2.86,1.166 -2.47698,7.10196 1.106,7.84396c3.741,0.774 5.269,-6.68296 2.949,-9.10896c-3.352,-3.501 -9.75698,-0.079 -8.96898,4.93396c0.192,1.226 1.421,1.598 0.491,3.29c-2.145,-0.491 -2.785,-2.233 -2.702,-4.55596c0.132,-3.8 3.317,-6.462 6.51098,-6.83c4.04,-0.466 7.831,1.527 8.354,5.44c0.59,4.41596 -1.823,9.19996 -6.142,8.85496c-1.171,-0.093 -1.663,-0.69 -2.58,-1.265z"/>
 </g>
</svg>