<svg width="24" height="24" xmlns="http://www.w3.org/2000/svg">

 <g>
  <title>background</title>
  <rect fill="none" id="canvas_background" height="402" width="582" y="-1" x="-1"/>
 </g>
 <g>
  <title>Layer 1</title>
  <path id="svg_1" fill="#ffffff" d="m19.633,7.99704c0.013,0.175 0.013,0.349 0.013,0.523c0,5.32496 -4.053,11.46096 -11.46,11.46096c-2.282,0 -4.402,-0.661 -6.186,-1.809c0.324,0.037 0.636,0.05 0.973,0.05c1.81299,0.0044 3.57465,-0.6018 5.001,-1.721c-0.84058,-0.0152 -1.65542,-0.2925 -2.33076,-0.7932c-0.67534,-0.5007 -1.17746,-1.1999 -1.43624,-1.9998c0.249,0.037 0.499,0.062 0.761,0.062c0.361,0 0.724,-0.05 1.061,-0.137c-0.91224,-0.1841 -1.73253,-0.6786 -2.32138,-1.3993c-0.58886,-0.7206 -0.90993,-1.623 -0.90862,-2.55366l0,-0.05c0.537,0.299 1.16,0.48596 1.82,0.51096c-0.55291,-0.36737 -1.00628,-0.86593 -1.31966,-1.45117c-0.31338,-0.58523 -0.47703,-1.23893 -0.47634,-1.90279c0,-0.748 0.199,-1.434 0.548,-2.032c1.01214,1.24502 2.2745,2.26356 3.70534,2.98966c1.43083,0.7261 2.99826,1.14356 4.60066,1.22534c-0.062,-0.3 -0.1,-0.611 -0.1,-0.923c-0.0003,-0.52904 0.1037,-1.05294 0.3061,-1.54176c0.2023,-0.48881 0.499,-0.93296 0.8731,-1.30705c0.3741,-0.37409 0.8182,-0.67078 1.307,-0.87311c0.4889,-0.20233 1.0128,-0.30634 1.5418,-0.30608c1.16,0 2.207,0.486 2.943,1.272c0.9018,-0.17438 1.7665,-0.50357 2.556,-0.973c-0.3006,0.93082 -0.9302,1.72011 -1.771,2.22c0.7998,-0.09122 1.5814,-0.30154 2.319,-0.624c-0.5509,0.8031 -1.2335,1.50735 -2.019,2.083z"/>
 </g>
</svg>